<?xml version="1.0" encoding="utf-8"?>
<!-- Generator: Adobe Illustrator 26.1.0, SVG Export Plug-In . SVG Version: 6.00 Build 0)  -->
<svg version="1.1" id="Слой_1" xmlns="http://www.w3.org/2000/svg" xmlns:xlink="http://www.w3.org/1999/xlink" x="0px" y="0px"
	 viewBox="0 0 200 200" style="enable-background:new 0 0 200 200;" xml:space="preserve">
<style type="text/css">
	.st0{fill:#2899C0;}
	.st1{opacity:0.2;enable-background:new    ;}
	.st2{fill:#FFFFFF;}
</style>
<desc>Created with Fabric.js 3.6.2</desc>
<g id="Layer_1" transform="matrix(4 0 0 4 200 200)">
	<path class="st0" d="M0-4.8C0-2.1-2.1,0-4.8,0h-40.5C-47.9,0-50-2.1-50-4.8v-40.5c0-2.6,2.1-4.8,4.8-4.8h40.5
		c2.6,0,4.8,2.1,4.8,4.8V-4.8z"/>
</g>
<g id="Layer_1_00000134940496037936040310000004199634598976374434_" transform="matrix(4 0 0 4 233.67 225.68)">
	<path class="st1" d="M-25.3-43.5l-4.9,6.8l-6.8-6.8l-4.6,24.2l13,13h15.4c2.6,0,4.8-2.1,4.8-4.8v-15.4L-25.3-43.5z"/>
</g>
<g id="Layer_1_00000089545938998871192010000009653236454981615276_" transform="matrix(4 0 0 4 176.7 200)">
	<path class="st2" d="M-22.3-13.8c0,0.7-0.6,1.3-1.3,1.3h-2.6c-0.7,0-1.3-0.6-1.3-1.3v-22.4c0-0.7,0.6-1.3,1.3-1.3h2.6
		c0.7,0,1.3,0.6,1.3,1.3V-13.8z"/>
</g>
<g id="Layer_1_00000179637441829485152460000003168276180552145069_" transform="matrix(4 0 0 4 223.3 200)">
	<path class="st2" d="M-22.4-13.8c0,0.7-0.6,1.3-1.3,1.3h-2.6c-0.7,0-1.3-0.6-1.3-1.3v-22.4c0-0.7,0.6-1.3,1.3-1.3h2.6
		c0.7,0,1.3,0.6,1.3,1.3V-13.8z"/>
</g>
</svg>
