<?xml version="1.0" encoding="utf-8"?>
<!-- Generator: Adobe Illustrator 26.1.0, SVG Export Plug-In . SVG Version: 6.00 Build 0)  -->
<svg version="1.1" id="Слой_1" xmlns="http://www.w3.org/2000/svg" xmlns:xlink="http://www.w3.org/1999/xlink" x="0px" y="0px"
	 viewBox="0 0 199.8 199.8" style="enable-background:new 0 0 199.8 199.8;" xml:space="preserve">
<style type="text/css">
	.st0{fill-rule:evenodd;clip-rule:evenodd;fill:#699F4C;}
</style>
<desc>Created with Fabric.js 3.6.2</desc>
<g id="play" transform="matrix(3.33 0 0 3.33 200 200)">
	<path class="st0" d="M-30.1-60.1c16.6,0,30,13.4,30,30s-13.4,30-30,30s-30-13.4-30-30S-46.6-60.1-30.1-60.1z M-36-21.3
		c0,0.5,0.3,0.9,0.8,1.1c0.5,0.2,1,0.2,1.5-0.1l13.1-8.7c0.6-0.4,0.8-1.3,0.4-1.9c-0.1-0.2-0.3-0.3-0.4-0.4l-13.2-8.5
		c-0.4-0.3-1-0.3-1.5-0.1c-0.5,0.2-0.8,0.7-0.8,1.2L-36-21.3z"/>
</g>
</svg>
