<?xml version="1.0" encoding="utf-8"?>
<!-- Generator: Adobe Illustrator 26.1.0, SVG Export Plug-In . SVG Version: 6.00 Build 0)  -->
<svg version="1.1" id="Слой_1" xmlns="http://www.w3.org/2000/svg" xmlns:xlink="http://www.w3.org/1999/xlink" x="0px" y="0px"
	 viewBox="0 0 150.1 150.1" style="enable-background:new 0 0 150.1 150.1;" xml:space="preserve">
<style type="text/css">
	.st0{fill:#8BC34A;}
	.st1{fill:#F1F8E9;}
	.st2{fill:#558B2F;}
</style>
<desc>Created with Fabric.js 3.6.2</desc>
<g id="surface1" transform="matrix(4.17 0 0 4.17 200 200)">
	<path class="st0" d="M-17-48h-26c-2.8,0-5,2.2-5,5v26c0,2.8,2.2,5,5,5h26c2.8,0,5-2.2,5-5v-26C-12-45.7-14.2-48-17-48z"/>
</g>
<g id="surface1_00000173861383590579516600000007335263407081546887_" transform="matrix(4.17 0 0 4.17 200 200)">
	<path class="st1" d="M-43-43h26v26h-26V-43z"/>
</g>
<g id="surface1_00000021821116760260243960000012770093381569029565_" transform="matrix(4.17 0 0 4.17 179.22 209.45)">
	<path class="st2" d="M-35.6-32.8l2.8-2.8l8.5,8.5l-2.8,2.8L-35.6-32.8z"/>
</g>
<g id="surface1_00000108278082382373833920000016156837604977497752_" transform="matrix(4.17 0 0 4.17 211.61 200.59)">
	<path class="st2" d="M-37.8-25.1l12.7-12.7l3,3l-12.7,12.7L-37.8-25.1z"/>
</g>
</svg>
